<?xml version="1.0" encoding="iso-8859-1"?>
<!-- Generator: Adobe Illustrator 19.0.0, SVG Export Plug-In . SVG Version: 6.00 Build 0)  -->
<svg version="1.1" id="Capa_1" xmlns="http://www.w3.org/2000/svg" xmlns:xlink="http://www.w3.org/1999/xlink" x="0px" y="0px"
	 viewBox="0 0 512 512" style="enable-background:new 0 0 512 512;" xml:space="preserve">
<path style="fill:#01a3bf;" d="M430.24,332.288L306.752,112.704l58.56-87.84c3.296-4.896,3.584-11.232,0.768-16.416
	C363.328,3.264,357.92,0,352,0H160c-5.92,0-11.328,3.264-14.112,8.448s-2.464,11.52,0.8,16.416l58.56,87.84L81.728,332.288
	C70.144,352.896,64,376.352,64,400c0,61.76,50.24,112,112,112h160c61.76,0,112-50.24,112-112
	C448,376.352,441.888,352.896,430.24,332.288z"/>
<path style="fill:#FFC107;" d="M320,128H192c-8.832,0-16-7.168-16-16s7.168-16,16-16h128c8.832,0,16,7.168,16,16
	S328.832,128,320,128z"/>
<path style="fill:#FAFAFA;" d="M256,320c-8.8,0-16-7.168-16-16s7.2-16,16-16h32c8.832,0,16-7.168,16-16s-7.168-16-16-16h-16v-16
	c0-8.832-7.168-16-16-16s-16,7.168-16,16v18.944c-18.592,6.624-32,24.224-32,45.056c0,26.464,21.536,48,48,48c8.8,0,16,7.168,16,16
	s-7.2,16-16,16h-32c-8.832,0-16,7.168-16,16s7.168,16,16,16h16v16c0,8.832,7.168,16,16,16s16-7.168,16-16v-18.944
	c18.592-6.624,32-24.224,32-45.056C304,341.536,282.464,320,256,320z"/>
<g>
</g>
<g>
</g>
<g>
</g>
<g>
</g>
<g>
</g>
<g>
</g>
<g>
</g>
<g>
</g>
<g>
</g>
<g>
</g>
<g>
</g>
<g>
</g>
<g>
</g>
<g>
</g>
<g>
</g>
</svg>
