<?xml version="1.0" encoding="iso-8859-1"?>
<!-- Generator: Adobe Illustrator 19.0.0, SVG Export Plug-In . SVG Version: 6.00 Build 0)  -->
<svg version="1.1" id="Capa_1" xmlns="http://www.w3.org/2000/svg" xmlns:xlink="http://www.w3.org/1999/xlink" x="0px" y="0px"
	 viewBox="0 0 468.293 468.293" style="enable-background:new 0 0 468.293 468.293;" xml:space="preserve">
<circle style="fill:#FCD462;" cx="234.146" cy="234.146" r="130.466"/>
<path style="fill:#F6C358;" d="M234.147,329.627c-52.646,0-95.476-42.836-95.476-95.482s42.83-95.476,95.476-95.476
	s95.476,42.83,95.476,95.476S286.793,329.627,234.147,329.627z"/>
<g>
	<path style="fill:#DC8744;" d="M230.469,303.53V291.31c-15.298-1.56-29.029-7.642-41.18-18.24l12.219-14.562
		c9.372,8.146,19.017,12.996,28.961,14.562v-32.476c-12.614-3.011-21.85-6.975-27.708-11.885
		c-5.858-4.911-8.786-12.192-8.786-21.843c0-9.651,3.365-17.546,10.121-23.689c6.757-6.137,15.543-9.481,26.373-10.04v-8.371h10.707
		v8.534c12.274,0.899,23.88,5.081,34.819,12.56l-10.884,15.4c-7.37-5.245-15.339-8.48-23.934-9.713v31.468h0.504
		c12.832,3.017,22.259,7.09,28.28,12.219c6.035,5.136,9.045,12.587,9.045,22.347c0,9.767-3.46,17.723-10.38,23.853
		c-6.92,6.144-16.061,9.488-27.449,10.046v12.049H230.469z M218.658,195.484c-2.847,2.507-4.264,5.633-4.264,9.372
		c0,3.739,1.117,6.695,3.351,8.868c2.22,2.18,6.471,4.271,12.723,6.28v-28.961C225.442,191.493,221.505,192.971,218.658,195.484z
		 M253.899,268.881c3.119-2.561,4.686-5.796,4.686-9.706c0-3.903-1.226-7.002-3.678-9.29c-2.466-2.289-7.043-4.434-13.731-6.443
		v30.126C246.53,273.016,250.766,271.449,253.899,268.881z"/>
	<path style="fill:#DC8744;" d="M242.827,44.239c0.17-0.255,0.287-0.531,0.433-0.797c0.181-0.331,0.381-0.649,0.526-1
		c0.142-0.343,0.224-0.701,0.327-1.054c0.088-0.299,0.204-0.585,0.265-0.894c0.268-1.349,0.268-2.738,0-4.087
		c-0.061-0.31-0.177-0.595-0.265-0.894c-0.104-0.353-0.185-0.711-0.327-1.054c-0.145-0.35-0.345-0.669-0.526-1
		c-0.146-0.266-0.262-0.542-0.433-0.797c-0.384-0.575-0.82-1.112-1.307-1.598L213.512,3.058c-4.077-4.077-10.682-4.077-14.759,0
		c-4.077,4.074-4.077,10.684,0,14.759l11.612,11.612C107.871,41.263,28.014,128.532,28.014,234.146
		c0,5.764,4.673,10.437,10.437,10.437s10.437-4.673,10.437-10.437c0-92.907,68.75-170.04,158.047-183.243l-8.182,8.182
		c-4.077,4.074-4.077,10.684,0,14.759c2.038,2.038,4.709,3.058,7.379,3.058c2.67,0,5.341-1.019,7.379-3.058l28.007-28.008
		C242.006,45.351,242.442,44.814,242.827,44.239z"/>
	<path style="fill:#DC8744;" d="M440.279,234.146c0-5.764-4.673-10.437-10.437-10.437c-5.764,0-10.437,4.673-10.437,10.437
		c0,92.908-68.752,170.041-158.05,183.243l8.18-8.182c4.077-4.077,4.077-10.684,0-14.761c-4.077-4.072-10.682-4.074-14.759,0.003
		l-28.002,28.008c-0.488,0.487-0.924,1.024-1.308,1.6c-0.165,0.246-0.277,0.513-0.419,0.77c-0.187,0.338-0.391,0.666-0.54,1.026
		c-0.139,0.335-0.218,0.685-0.32,1.031c-0.091,0.306-0.208,0.599-0.271,0.916c-0.133,0.668-0.203,1.345-0.204,2.024
		c0,0.006-0.002,0.012-0.002,0.018l0,0c0,0.686,0.072,1.371,0.206,2.046c0.061,0.304,0.174,0.585,0.26,0.878
		c0.104,0.358,0.188,0.72,0.332,1.068c0.145,0.349,0.343,0.666,0.524,0.995c0.146,0.268,0.263,0.545,0.435,0.801
		c0.384,0.575,0.82,1.112,1.307,1.598l28.007,28.008c2.038,2.038,4.709,3.058,7.379,3.058c2.67,0,5.341-1.019,7.379-3.058
		c4.077-4.074,4.077-10.684,0-14.759l-11.612-11.612C360.422,427.03,440.279,339.761,440.279,234.146z"/>
</g>
<g>
</g>
<g>
</g>
<g>
</g>
<g>
</g>
<g>
</g>
<g>
</g>
<g>
</g>
<g>
</g>
<g>
</g>
<g>
</g>
<g>
</g>
<g>
</g>
<g>
</g>
<g>
</g>
<g>
</g>
</svg>
